<svg xmlns="http://www.w3.org/2000/svg" viewBox="0 0 620 190" role="img" aria-labelledby="title desc">
  <title id="title">Canopy Tree Co. logo</title>
  <desc id="desc">Generic tree service logo for a template website.</desc>
  <g fill="#050905">
    <path d="M96 26c-20 0-37 11-46 28-17 3-30 18-30 36 0 20 16 36 36 36h30v32h-25c-5 0-9 4-9 9s4 9 9 9h88c5 0 9-4 9-9s-4-9-9-9h-25v-32h31c20 0 36-16 36-36 0-18-13-33-30-36-10-17-27-28-47-28-5 0-10 1-14 2-5-1-9-2-14-2Zm0 18c5 0 9 1 13 3l5 2 5-2c4-1 8-2 14-2 15 0 28 9 34 22l2 6 7 1c11 1 20 11 20 23 0 13-10 23-23 23H56c-13 0-23-10-23-23 0-12 9-22 21-23l6-1 3-6c6-13 19-22 33-22Zm-7 82h18v32H89v-32Z"/>
    <text x="225" y="86" font-family="Montserrat, Arial, sans-serif" font-size="46" font-weight="800" letter-spacing="1">CANOPY TREE CO.</text>
    <text x="229" y="135" font-family="Montserrat, Arial, sans-serif" font-size="24" font-weight="700" letter-spacing="7">TREE SERVICE</text>
  </g>
</svg>
